<svg t="1663744777445" class="icon" viewBox="0 0 1024 1024" version="1.1" xmlns="http://www.w3.org/2000/svg" p-id="2563" width="128" height="128"><path d="M505.28 60.8c216.32 0 391.872 186.496 399.36 418.88l0.256 15.552v445.824a22.4 22.4 0 0 1-44.8 0V495.232c0-215.68-159.36-389.632-354.816-389.632-190.976 0-347.456 166.016-354.624 374.656l-0.256 14.976v445.824a22.4 22.4 0 0 1-44.8 0V495.232C105.6 255.68 284.096 60.8 505.28 60.8z" p-id="2564"></path><path d="M737.28 438.08H273.28V586.24a232 232 0 0 0 464 0V438.08z m-419.264 44.736h374.4V586.24a187.2 187.2 0 0 1-187.136 187.2l-11.008-0.32A187.2 187.2 0 0 1 318.08 586.24l-0.064-103.424z" p-id="2565"></path></svg>