<svg t="1663351733208" class="icon" viewBox="0 0 1024 1024" version="1.1" xmlns="http://www.w3.org/2000/svg" p-id="2140" width="128" height="128"><path d="M571.733333 512l268.8-268.8c17.066667-17.066667 17.066667-42.666667 0-59.733333-17.066667-17.066667-42.666667-17.066667-59.733333 0L512 452.266667 243.2 183.466667c-17.066667-17.066667-42.666667-17.066667-59.733333 0-17.066667 17.066667-17.066667 42.666667 0 59.733333L452.266667 512 183.466667 780.8c-17.066667 17.066667-17.066667 42.666667 0 59.733333 8.533333 8.533333 19.2 12.8 29.866666 12.8s21.333333-4.266667 29.866667-12.8L512 571.733333l268.8 268.8c8.533333 8.533333 19.2 12.8 29.866667 12.8s21.333333-4.266667 29.866666-12.8c17.066667-17.066667 17.066667-42.666667 0-59.733333L571.733333 512z" p-id="2141"></path></svg>