<svg t="1663686829680" class="icon" viewBox="0 0 1024 1024" version="1.1" xmlns="http://www.w3.org/2000/svg" p-id="2138" width="128" height="128"><path d="M896 256v64a21.333333 21.333333 0 0 1-21.333333 21.333333h-42.666667a21.333333 21.333333 0 0 1-21.333333-21.333333V256a42.666667 42.666667 0 0 0-42.666667-42.666667h-64a21.333333 21.333333 0 0 1-21.333333-21.333333v-42.666667a21.333333 21.333333 0 0 1 21.333333-21.333333H768a128 128 0 0 1 128 128zM320 810.666667H256a42.666667 42.666667 0 0 1-42.666667-42.666667v-64a21.333333 21.333333 0 0 0-21.333333-21.333333h-42.666667a21.333333 21.333333 0 0 0-21.333333 21.333333V768a128 128 0 0 0 128 128h64a21.333333 21.333333 0 0 0 21.333333-21.333333v-42.666667a21.333333 21.333333 0 0 0-21.333333-21.333333z m-170.666667-469.333334h42.666667a21.333333 21.333333 0 0 0 21.333333-21.333333V256a42.666667 42.666667 0 0 1 42.666667-42.666667h64a21.333333 21.333333 0 0 0 21.333333-21.333333v-42.666667a21.333333 21.333333 0 0 0-21.333333-21.333333H256a128 128 0 0 0-128 128v64a21.333333 21.333333 0 0 0 21.333333 21.333333z m725.333334 341.333334h-42.666667a21.333333 21.333333 0 0 0-21.333333 21.333333V768a42.666667 42.666667 0 0 1-42.666667 42.666667h-64a21.333333 21.333333 0 0 0-21.333333 21.333333v42.666667a21.333333 21.333333 0 0 0 21.333333 21.333333H768a128 128 0 0 0 128-128v-64a21.333333 21.333333 0 0 0-21.333333-21.333333zM384 448v-85.333333a21.333333 21.333333 0 0 0-21.333333-21.333334h-42.666667a21.333333 21.333333 0 0 0-21.333333 21.333334v85.333333a21.333333 21.333333 0 0 0 21.333333 21.333333h42.666667a21.333333 21.333333 0 0 0 21.333333-21.333333z m341.333333 0v-85.333333a21.333333 21.333333 0 0 0-21.333333-21.333334h-42.666667a21.333333 21.333333 0 0 0-21.333333 21.333334v85.333333a21.333333 21.333333 0 0 0 21.333333 21.333333h42.666667a21.333333 21.333333 0 0 0 21.333333-21.333333zM448 597.333333a106.666667 106.666667 0 0 0 106.666667-106.666666v-128a21.333333 21.333333 0 0 0-21.333334-21.333334h-42.666666a21.333333 21.333333 0 0 0-21.333334 21.333334v128a21.333333 21.333333 0 0 1-21.333333 21.333333 21.333333 21.333333 0 0 0-21.333333 21.333333v42.666667a21.333333 21.333333 0 0 0 21.333333 21.333333z m178.346667 66.986667a21.76 21.76 0 0 0-28.586667-4.693333 175.36 175.36 0 0 1-170.666667 0 21.76 21.76 0 0 0-28.586666 4.693333l-25.6 34.56a20.906667 20.906667 0 0 0 4.693333 30.72A256 256 0 0 0 512 768a252.586667 252.586667 0 0 0 134.826667-38.4 20.906667 20.906667 0 0 0 5.12-30.72z" p-id="2139"></path></svg>